<svg xmlns="http://www.w3.org/2000/svg" xmlns:xlink="http://www.w3.org/1999/xlink" width="500" zoomAndPan="magnify" viewBox="0 0 375 374.999991" height="500" preserveAspectRatio="xMidYMid meet" version="1.0"><defs><clipPath id="7223340f19"><path d="M 37 28 L 326 28 L 326 317 L 37 317 Z M 37 28 " clip-rule="nonzero"/></clipPath><clipPath id="22eb7d71d0"><path d="M 297.660156 5.507812 L 348.085938 289.058594 L 64.535156 339.488281 L 14.109375 55.9375 Z M 297.660156 5.507812 " clip-rule="nonzero"/></clipPath><clipPath id="e85c0fda4a"><path d="M 348.054688 288.886719 L 297.628906 5.335938 L 14.078125 55.761719 L 64.503906 339.3125 Z M 348.054688 288.886719 " clip-rule="nonzero"/></clipPath><clipPath id="140f6ea787"><path d="M 37 28 L 326 28 L 326 317 L 37 317 Z M 37 28 " clip-rule="nonzero"/></clipPath><clipPath id="6b9a7e1b14"><path d="M 243.257812 -21.425781 L 375.070312 234.640625 L 119.003906 366.453125 L -12.808594 110.390625 Z M 243.257812 -21.425781 " clip-rule="nonzero"/></clipPath><clipPath id="b994a9fc8a"><path d="M 243.257812 -21.425781 L 375.070312 234.640625 L 119.003906 366.453125 L -12.808594 110.390625 Z M 243.257812 -21.425781 " clip-rule="nonzero"/></clipPath><clipPath id="d15b36c3c9"><path d="M 65 56 L 297 56 L 297 288 L 65 288 Z M 65 56 " clip-rule="nonzero"/></clipPath><clipPath id="4c8bae4a4f"><path d="M 231.011719 16.792969 L 336.738281 222.175781 L 131.351562 327.902344 L 25.628906 122.515625 Z M 231.011719 16.792969 " clip-rule="nonzero"/></clipPath><clipPath id="f2cf3f4bc4"><path d="M 231.011719 16.792969 L 336.738281 222.175781 L 131.351562 327.902344 L 25.628906 122.515625 Z M 231.011719 16.792969 " clip-rule="nonzero"/></clipPath></defs><rect x="-37.5" width="450" fill="#ffffff" y="-37.499999" height="449.999989" fill-opacity="1"/><rect x="-37.5" width="450" fill="#ffffff" y="-37.499999" height="449.999989" fill-opacity="1"/><g clip-path="url(#7223340f19)"><g clip-path="url(#22eb7d71d0)"><g clip-path="url(#e85c0fda4a)"><path fill="#00bf63" d="M 154.386719 166.878906 L 186.179688 189.070312 L 136.953125 225.722656 Z M 150.679688 152.625 L 228.175781 94.96875 L 200.773438 187.585938 L 123.277344 245.242188 Z M 292.726562 160.679688 C 302.804688 230.824219 230.929688 299.285156 161.332031 283.035156 C 103.789062 273.179688 58.234375 212.566406 70.269531 154.722656 C 78.636719 100.738281 130.332031 55.640625 185.933594 60.355469 C 238.398438 62.316406 287.027344 104.308594 292.210938 157.425781 L 292.523438 159.390625 Z M 155.957031 30.789062 C 77.726562 44.703125 25.589844 119.394531 39.5 197.625 C 53.414062 275.855469 128.105469 327.992188 206.335938 314.082031 C 284.566406 300.167969 336.703125 225.472656 322.792969 147.246094 C 308.878906 69.015625 234.183594 16.878906 155.957031 30.789062 Z M 155.957031 30.789062 " fill-opacity="1" fill-rule="evenodd"/></g></g></g><g clip-path="url(#140f6ea787)"><g clip-path="url(#6b9a7e1b14)"><g clip-path="url(#b994a9fc8a)"><path fill="#0097b2" d="M 53.214844 238.261719 C 16.824219 167.570312 45.007812 80.628906 115.300781 44.441406 C 185.597656 8.257812 272.734375 35.839844 309.125 106.53125 C 345.511719 177.21875 317.726562 263.960938 247.035156 300.351562 C 176.34375 336.738281 89.402344 308.558594 53.214844 238.261719 Z M 301.226562 110.59375 C 267.070312 44.25 185.714844 18.1875 119.367188 52.339844 C 53.023438 86.492188 26.960938 167.851562 61.113281 234.195312 C 95.265625 300.542969 176.621094 326.605469 242.96875 292.453125 C 309.316406 258.300781 335.175781 176.546875 301.226562 110.59375 Z M 301.226562 110.59375 " fill-opacity="1" fill-rule="nonzero"/></g></g></g><g clip-path="url(#d15b36c3c9)"><g clip-path="url(#4c8bae4a4f)"><g clip-path="url(#f2cf3f4bc4)"><path fill="#0097b2" d="M 78.445312 225.273438 C 49.230469 168.523438 71.855469 98.722656 128.289062 69.671875 C 184.722656 40.621094 254.679688 62.765625 283.890625 119.515625 C 313.105469 176.269531 290.796875 245.90625 234.046875 275.117188 C 177.292969 304.332031 107.496094 281.707031 78.445312 225.273438 Z M 277.550781 122.78125 C 250.132812 69.515625 184.816406 48.59375 131.554688 76.011719 C 78.289062 103.429688 57.367188 168.746094 84.785156 222.007812 C 112.203125 275.273438 177.519531 296.195312 230.78125 268.777344 C 284.046875 241.359375 304.804688 175.726562 277.550781 122.78125 Z M 277.550781 122.78125 " fill-opacity="1" fill-rule="nonzero"/></g></g></g></svg>